<svg width="305" height="190" viewBox="0 0 305 190" fill="none" xmlns="http://www.w3.org/2000/svg">
<g clip-path="url(#clip0_1_8)">
<path d="M172.525 20.6882L168.89 38.9822H147.632L143.473 59.6397H124.126L128.254 38.9822H106.996L110.632 20.6882H131.92L136.048 0H155.427L151.268 20.6882H172.525Z" fill="#1741FF"/>
<path d="M110.909 190C127.924 190 141.717 176.258 141.717 159.305C141.717 142.353 127.924 128.611 110.909 128.611C93.8943 128.611 80.101 142.353 80.101 159.305C80.101 176.258 93.8943 190 110.909 190Z" fill="#1741FF"/>
<path d="M203.333 190C220.348 190 234.141 176.258 234.141 159.305C234.141 142.353 220.348 128.611 203.333 128.611C186.318 128.611 172.525 142.353 172.525 159.305C172.525 176.258 186.318 190 203.333 190Z" fill="#1741FF"/>
<path d="M73.9394 113.263C90.9542 113.263 104.747 99.5209 104.747 82.5687C104.747 65.6165 90.9542 51.874 73.9394 51.874C56.9245 51.874 43.1313 65.6165 43.1313 82.5687C43.1313 99.5209 56.9245 113.263 73.9394 113.263Z" fill="#1741FF"/>
<path d="M274.192 113.263C291.207 113.263 305 99.5209 305 82.5687C305 65.6165 291.207 51.874 274.192 51.874C257.177 51.874 243.384 65.6165 243.384 82.5687C243.384 99.5209 257.177 113.263 274.192 113.263Z" fill="#1741FF"/>
<path d="M203.333 113.263C220.348 113.263 234.141 99.5209 234.141 82.5687C234.141 65.6165 220.348 51.874 203.333 51.874C186.318 51.874 172.525 65.6165 172.525 82.5687C172.525 99.5209 186.318 113.263 203.333 113.263Z" fill="#1741FF"/>
<path d="M30.8081 190C47.8229 190 61.6162 176.258 61.6162 159.305C61.6162 142.353 47.8229 128.611 30.8081 128.611C13.7932 128.611 0 142.353 0 159.305C0 176.258 13.7932 190 30.8081 190Z" fill="#1741FF"/>
</g>
<defs>
<clipPath id="clip0_1_8">
<rect width="305" height="190" fill="white"/>
</clipPath>
</defs>
</svg>
