<?xml version="1.0" encoding="UTF-8"?>
<svg width="234" height="198" xmlns="http://www.w3.org/2000/svg">
 <path d="m234 198h-234v-198h234zm-229-193v188h224v-188z" fill="rgba(0,0,0,0)"/>
 <path d="m5 5h224v188h-224zm196 136c25.46-52.38-12.53-112.54-70-114-59.21-1.5-97.48 60.54-72 113 28.37 58.42 112.79 61.09 142 1z" fill="rgba(255,255,255,1)"/>
 <path d="m140 135 2.68-5.25c2.9-5.67 3.38-11.36 1.87-21.84-0.78-5.37-0.62-5.98 3.89-15.2 10.95-22.37 0.87-45.04-19.33-43.45-18.5 1.46-25.8 22.23-15.43 43.94 4.68 9.8 4.68 9.8 3.35 16.78-0.81 4.24-1.08 9.34-0.03 19.02l-0.75-0.43c-0.41-0.24-1.26-3.42-1.88-7.08-1.41-8.28-1.62-8.35-14.24-5.02-13.34 3.52-16.39 6.11-21.13 23.53l-7.75-0.25c-7.75-0.25-7.75-0.25-11.09-6.75s-3.34-6.5-1.02-0.26c1.72 4.63 2 6.37-0.14 7.26-25.48-52.46 12.79-114.5 72-113 57.47 1.46 95.46 61.62 70 114l-1.12-0.6c-0.81-0.44-0.8-1.27 0.04-3.13 1.69-3.71 0.51-3.99-1.39-0.33-1.58 3.06-1.75 3.12-8.3 2.94-4.36-0.12-6.78 0.22-7.23 2.12l-0.52-3.25c-2.4-15.04-6.36-19.06-22.41-22.77-11.57-2.68-11.26-2.83-12.52 6.08-0.92 6.54-1.44 7.77-7.55 12.94z" fill="rgba(193,206,226,1)"/>
 <path d="m79 140c4.74-17.42 7.79-20.01 21.13-23.53 12.62-3.33 12.83-3.26 14.24 5.02 0.62 3.66 1.47 6.84 1.88 7.08l0.75 0.43 2.75 3.45c1.51 1.9 4.44 4.13 6.5 4.95 2.08 0.83 3.75 2.19 3.75 4.6l-0.04 2.25c-0.08 4.83 1.15 8.05 4.14 10.84 2.62 2.45 7.9 4.06 7.9 2.41v-1c0-0.27-0.85-0.5-1.88-0.5-3.41 0-8.12-5.91-8.12-14l0.25-1.42c0.14-0.78 1.94-2.35 7.75-5.58 6.11-5.17 6.63-6.4 7.55-12.94 1.26-8.91 0.95-8.76 12.52-6.08 16.05 3.71 20.01 7.73 22.41 22.77l0.52 3.25 0.1 1.75c0.68 11.76-4.97 15.19-31.6 19.17-17 2.54-17 2.54-33.69 0.85-30.38-3.08-38.85-7.01-38.81-23.77zm19.1 2.8c2.08 0.24 2.73 0.99 3.25 3.75 0.36 1.9 1.14 3.45 1.75 3.45 0.6 0 1.5-0.25 2-0.56 0.49-0.31 0.9-1.69 0.9-3.07 0-1.95 0.69-2.71 3.1-3.4 3.9-1.12 3.36-3.36-0.93-3.78-1.74-0.18-3.14-0.4-3.1-0.5 0.04-0.11 0.15-1.31 0.25-2.69 0.27-3.71-3.7-3.53-4.13 0.19-0.24 2.08-0.92 2.76-3 3-3.51 0.4-3.58 3.21-0.09 3.61m59.9-3.8 1.03-1.95c0.72-1.34 0.72-2.11-1.03-3.05l-2.99-0.25c-1.65-0.14-3.22 0.09-4.01 1.25l-0.25 2.08c-0.14 1.14 0.54 2.86 1.5 3.83s1.75 2.96 1.75 4.42c0 2.68 1.31 3.76 1.72 1.42 0.12-0.69 0.69-2.71 2.28-7.75z" fill="rgba(84,124,255,1)"/>
 <path d="m130 142c0-2.41-1.67-3.77-3.75-4.6-2.06-0.82-4.99-3.05-6.5-4.95l-2.75-3.45c-1.05-9.68-0.78-14.78 0.03-19.02 1.33-6.98 1.33-6.98-3.35-16.78-10.37-21.71-3.07-42.48 15.43-43.94 20.2-1.59 30.28 21.08 19.33 43.45-4.51 9.22-4.67 9.83-3.89 15.2 1.51 10.48 1.03 16.17-1.87 21.84l-2.68 5.25c-5.81 3.23-7.61 4.8-7.75 5.58l-0.25 1.42z" fill="rgba(244,221,204,1)"/>
 <path d="m59 140c2.14-0.89 1.86-2.63 0.14-7.26-2.32-6.24-2.32-6.24 1.02 0.26s3.34 6.5 11.09 6.75l7.75 0.25c-0.04 16.76 8.43 20.69 38.81 23.77 16.69 1.69 16.69 1.69 33.69-0.85 26.63-3.98 32.28-7.41 31.6-19.17l-0.1-1.75c0.45-1.9 2.87-2.24 7.23-2.12 6.55 0.18 6.72 0.12 8.3-2.94 1.9-3.66 3.08-3.38 1.39 0.33-0.84 1.86-0.85 2.69-0.04 3.13l1.12 0.6c-29.21 60.09-113.63 57.42-142-1z" fill="rgba(221,226,234,1)"/>
 <path d="m98.1 142.8c-3.49-0.4-3.42-3.21 0.09-3.61 2.08-0.24 2.76-0.92 3-3 0.43-3.72 4.4-3.9 4.13-0.19-0.1 1.38-0.21 2.58-0.25 2.69-0.04 0.1 1.36 0.32 3.1 0.5 4.29 0.42 4.83 2.66 0.93 3.78-2.41 0.69-3.1 1.45-3.1 3.4 0 1.38-0.41 2.76-0.9 3.07-0.5 0.31-1.4 0.56-2 0.56-0.61 0-1.39-1.55-1.75-3.45-0.52-2.76-1.17-3.51-3.25-3.75" fill="rgba(193,206,226,1)"/>
 <path d="m130 142h2c0 8.09 4.71 14 8.12 14 1.03 0 1.88 0.23 1.88 0.5v1c0 1.65-5.28 0.04-7.9-2.41-2.99-2.79-4.22-6.01-4.14-10.84z" fill="rgba(221,226,234,1)"/>
 <path d="m151 135 1.25 2.05c0.69 1.13 2.04 2.03 4.75 1.95h1c-1.59 5.04-2.16 7.06-2.28 7.75-0.41 2.34-1.72 1.26-1.72-1.42 0-1.46-0.79-3.45-1.75-4.42s-1.64-2.69-1.5-3.83z" fill="rgba(221,226,234,1)"/>
 <path d="m151 135c0.79-1.16 2.36-1.39 4.01-1.25l2.99 0.25-1 5c-2.71 0.08-4.06-0.82-4.75-1.95z" fill="rgba(0,0,0,1)"/>
 <path d="m157 139 1-5c1.75 0.94 1.75 1.71 1.03 3.05l-1.03 1.95z" fill="rgba(193,206,226,1)"/>
</svg>
